<?xml version="1.0" encoding="UTF-8" standalone="no"?>
<!DOCTYPE svg PUBLIC "-//W3C//DTD SVG 1.1//EN" "http://www.w3.org/Graphics/SVG/1.1/DTD/svg11.dtd">
<svg width="100%" height="100%" viewBox="0 0 608 608" version="1.1" xmlns="http://www.w3.org/2000/svg" xmlns:xlink="http://www.w3.org/1999/xlink" xml:space="preserve" xmlns:serif="http://www.serif.com/" style="fill-rule:evenodd;clip-rule:evenodd;stroke-linecap:round;stroke-linejoin:round;stroke-miterlimit:1.5;">
    <g transform="matrix(1.333333,0,0,1.333333,0,0)">
        <g transform="matrix(2.612804,0,0,2.661165,-63.839692,4.147592)">
            <path d="M103.9,54.079C105.48,51.308 108.462,49.591 111.696,49.591C114.93,49.591 117.912,51.308 119.492,54.079C127.619,68.332 140.235,90.459 148.023,104.118C149.465,106.646 149.433,109.734 147.941,112.233C146.449,114.732 143.72,116.268 140.769,116.268C124.724,116.268 98.742,116.268 82.675,116.268C79.714,116.268 76.974,114.727 75.477,112.218C73.979,109.71 73.948,106.61 75.394,104.073C83.184,90.41 95.782,68.317 103.9,54.079Z" style="fill-opacity:0.42;stroke:rgb(180,180,180);stroke-width:1.9px;"/>
        </g>
        <g transform="matrix(0.362334,0,0,0.362334,79.507128,231.978847)">
            <circle cx="208.622" cy="161.208" r="50.3" style="stroke:rgb(220,220,220);stroke-width:5.75px;"/>
        </g>
        <g transform="matrix(0.362334,0,0,0.362334,115.958103,231.978847)">
            <circle cx="208.622" cy="161.208" r="50.3" style="stroke:rgb(220,220,220);stroke-width:5.75px;"/>
        </g>
        <g transform="matrix(0.362334,0,0,0.362334,152.409078,231.978847)">
            <circle cx="208.622" cy="161.208" r="50.3" style="stroke:rgb(220,220,220);stroke-width:5.75px;"/>
        </g>
        <g transform="matrix(0.362334,0,0,0.362334,188.860052,231.978847)">
            <circle cx="208.622" cy="161.208" r="50.3" style="stroke:rgb(220,220,220);stroke-width:5.75px;"/>
        </g>
        <g transform="matrix(0.362334,0,0,0.362334,225.311027,231.978847)">
            <circle cx="208.622" cy="161.208" r="50.3" style="stroke:rgb(220,220,220);stroke-width:5.75px;"/>
        </g>
        <g transform="matrix(0.362334,0,0,0.362334,97.732616,200.119276)">
            <circle cx="208.622" cy="161.208" r="50.3" style="stroke:rgb(220,220,220);stroke-width:5.75px;"/>
        </g>
        <g transform="matrix(0.362334,0,0,0.362334,134.18359,200.119276)">
            <circle cx="208.622" cy="161.208" r="50.3" style="stroke:rgb(220,220,220);stroke-width:5.75px;"/>
        </g>
        <g transform="matrix(0.362334,0,0,0.362334,170.634565,200.119276)">
            <circle cx="208.622" cy="161.208" r="50.3" style="stroke:rgb(220,220,220);stroke-width:5.75px;"/>
        </g>
        <g transform="matrix(0.362334,0,0,0.362334,207.085539,200.119276)">
            <circle cx="208.622" cy="161.208" r="50.3" style="stroke:rgb(220,220,220);stroke-width:5.75px;"/>
        </g>
        <g transform="matrix(0.362334,0,0,0.362334,115.958103,167.936882)">
            <circle cx="208.622" cy="161.208" r="50.3" style="stroke:rgb(220,220,220);stroke-width:5.75px;"/>
        </g>
        <g transform="matrix(0.362334,0,0,0.362334,152.409078,167.936882)">
            <circle cx="208.622" cy="161.208" r="50.3" style="stroke:rgb(220,220,220);stroke-width:5.75px;"/>
        </g>
        <g transform="matrix(0.362334,0,0,0.362334,188.860052,167.936882)">
            <circle cx="208.622" cy="161.208" r="50.3" style="stroke:rgb(220,220,220);stroke-width:5.75px;"/>
        </g>
        <g transform="matrix(0.362334,0,0,0.362334,134.301796,135.976833)">
            <circle cx="208.622" cy="161.208" r="50.3" style="stroke:rgb(220,220,220);stroke-width:5.75px;"/>
        </g>
        <g transform="matrix(0.362334,0,0,0.362334,170.752771,135.976833)">
            <circle cx="208.622" cy="161.208" r="50.3" style="stroke:rgb(220,220,220);stroke-width:5.75px;"/>
        </g>
        <g transform="matrix(0.362334,0,0,0.362334,97.732616,90.32534)">
            <circle cx="208.622" cy="161.208" r="50.3" style="stroke:rgb(220,220,220);stroke-width:5.75px;"/>
        </g>
    </g>
</svg>
